<?xml version="1.0" encoding="iso-8859-1"?>
<!-- Generator: Adobe Illustrator 19.0.0, SVG Export Plug-In . SVG Version: 6.00 Build 0)  -->
<svg version="1.1" id="Layer_1" xmlns="http://www.w3.org/2000/svg" xmlns:xlink="http://www.w3.org/1999/xlink" x="0px" y="0px"
	 viewBox="0 0 395.814 395.814" style="enable-background:new 0 0 395.814 395.814;" xml:space="preserve">
<g>
	<path style="fill:#FDBF5E;" d="M389.519,155.329v234.279H6.295V155.329h0.97c0,0.194,0.129,0.323,0.323,0.453
		c-0.065,0.194-0.065,0.517-0.065,0.776l189.737,147.782h0.646l189.802-147.717c0.646-0.646,0-1.228-0.582-1.228h2.392V155.329z"/>
	<path style="fill:#FDBF5E;" d="M388.291,388.38c0,0.646,0,1.228-0.646,1.228H8.105c-0.646,0-1.228-0.646-0.646-1.228
		l149.139-115.717l40.663,31.677h0.646l41.18-32.065L388.291,388.38z"/>
</g>
<g>
	<path style="fill:#FFFFFF;" d="M7.523,154.747l59.992-46.739v95.289L7.523,156.622c0-0.259,0-0.582,0.065-0.776
		C7.265,155.523,7.071,155.135,7.523,154.747z"/>
	<polygon style="fill:#FFFFFF;" points="198.554,6.384 252.533,48.404 143.927,48.404 197.907,6.384 	"/>
	<path style="fill:#FFFFFF;" d="M387.709,155.329h-0.582c0.646,0,1.228,0.646,0.582,1.228l-59.345,46.222v-95.354l59.992,46.675
		C388.291,154.747,388.291,155.329,387.709,155.329z"/>
</g>
<polygon style="fill:#E1E6E9;" points="328.364,48.404 328.364,202.78 197.907,304.339 197.261,304.339 67.451,203.297 
	67.451,48.404 "/>
<g>
	<rect x="158.99" y="343.903" style="fill:#193651;" width="12.347" height="11.766"/>
	<rect x="191.701" y="343.903" style="fill:#193651;" width="12.347" height="11.766"/>
	<rect x="224.477" y="343.903" style="fill:#193651;" width="12.347" height="11.766"/>
	<path style="fill:#193651;" d="M328.364,99.733v15.451l51.329,40.21L197.907,296.905L16.186,155.329l51.329-40.21V99.733
		L0.089,152.226v243.588h395.636V152.226L328.364,99.733z M12.436,168.323l134.141,104.469L12.436,377.261V168.323z M24.202,383.467
		l132.267-103.24l37.107,29.026c1.228,1.228,2.457,1.228,4.331,1.228c1.228,0,3.103-0.646,4.331-1.228l37.107-29.026l132.267,103.24
		H24.202z M383.378,377.261L249.236,272.792l134.141-104.469V377.261z M197.907,13.754l43.895,34.004h20.428L202.238,1.406
		c-2.457-1.875-5.56-1.875-8.016,0L134.23,47.758h20.428L197.907,13.754z"/>
	<rect x="119.426" y="84.218" style="fill:#193651;" width="156.38" height="12.347"/>
	<rect x="119.426" y="126.303" style="fill:#193651;" width="156.38" height="12.347"/>
	<rect x="119.426" y="168.323" style="fill:#193651;" width="156.38" height="12.347"/>
</g>
<g>
</g>
<g>
</g>
<g>
</g>
<g>
</g>
<g>
</g>
<g>
</g>
<g>
</g>
<g>
</g>
<g>
</g>
<g>
</g>
<g>
</g>
<g>
</g>
<g>
</g>
<g>
</g>
<g>
</g>
</svg>
