<?xml version="1.0" encoding="iso-8859-1"?>
<!-- Generator: Adobe Illustrator 19.0.0, SVG Export Plug-In . SVG Version: 6.00 Build 0)  -->
<svg version="1.1" id="Layer_1" xmlns="http://www.w3.org/2000/svg" xmlns:xlink="http://www.w3.org/1999/xlink" x="0px" y="0px"
	 viewBox="0 0 396.283 396.283" style="enable-background:new 0 0 396.283 396.283;" xml:space="preserve">
<polygon style="fill:#D3D7DA;" points="230.92,389.43 231.502,352.388 166.015,351.741 166.015,389.43 "/>
<g>
	<path style="fill:#FFFFFF;" d="M214.241,305.778v46.61h-32.194v-46.61c5.301,0.582,10.667,0.84,16.097,0.84
		S208.94,306.295,214.241,305.778z"/>
	<circle style="fill:#FFFFFF;" cx="198.144" cy="156.38" r="150.238"/>
</g>
<path style="fill:#193651;" d="M354.524,157.608c0-42.02-16.097-81.002-45.123-111.257C280.374,16.679,240.811,0,199.372,0h-1.228
	C112.229,0,42.346,69.883,41.764,155.798c-0.646,79.127,58.117,144.679,134.141,155.798v34.586h-16.097v50.101h77.899v-49.455
	h-17.325v-34.586C295.825,300.412,353.942,235.507,354.524,157.608z M225.36,358.529v24.76h-53.139v-25.341L225.36,358.529z
	 M188.253,346.182v-33.358c3.103,0,16.679,0,19.782,0v33.358H188.253z M166.015,296.727
	C101.756,282.505,53.53,224.388,54.112,155.798c0.646-79.127,64.905-143.451,144.032-143.451h1.228
	c38.335,0,74.796,15.451,102.012,42.667s42.02,63.677,41.438,102.012c-0.646,68.59-49.455,126.125-114.36,140.347
	C207.388,302.287,187.025,301.64,166.015,296.727z"/>
<path style="fill:#2EA2DB;" d="M197.498,282.505c-69.236-0.646-125.479-56.889-124.897-126.707
	c0-68.59,56.889-124.897,125.479-124.897h0.646c33.358,0,64.905,13.576,88.372,37.107c23.467,24.113,36.461,55.661,36.461,89.018
	c0.065,69.236-56.824,125.479-125.414,125.479H197.498z"/>
<g>
	<circle style="fill:#FFFFFF;" cx="198.144" cy="106.343" r="33.358"/>
	<path style="fill:#FFFFFF;" d="M253.805,153.923l-15.451-7.434c-10.537,10.537-24.76,17.325-40.792,17.325
		c-16.097,0-30.319-6.788-40.792-17.325l-14.222,7.434c-5.56,2.457-8.663,8.016-8.663,14.222v59.992h129.228v-59.992
		C262.467,161.939,259.364,156.38,253.805,153.923z"/>
</g>
<g>
	<rect x="158.58" y="190.384" style="fill:#193651;" width="12.347" height="12.347"/>
	<rect x="191.938" y="190.384" style="fill:#193651;" width="12.347" height="12.347"/>
	<rect x="225.36" y="190.384" style="fill:#193651;" width="12.347" height="12.347"/>
</g>
<g>
</g>
<g>
</g>
<g>
</g>
<g>
</g>
<g>
</g>
<g>
</g>
<g>
</g>
<g>
</g>
<g>
</g>
<g>
</g>
<g>
</g>
<g>
</g>
<g>
</g>
<g>
</g>
<g>
</g>
</svg>
